<?xml version="1.0" encoding="utf-8"?>
<!-- Generator: Adobe Illustrator 24.0.0, SVG Export Plug-In . SVG Version: 6.00 Build 0)  -->
<svg version="1.1" id="Layer_1" xmlns="http://www.w3.org/2000/svg" xmlns:xlink="http://www.w3.org/1999/xlink" x="0px" y="0px"
	 viewBox="0 0 267.6 88.1" style="enable-background:new 0 0 267.6 88.1;" xml:space="preserve">
<style type="text/css">
	.st0{fill:#E41F1A;}
	.st1{fill:#573854;}
	.st2{fill:#193862;}
	.st3{fill:#E12586;}
	.st4{fill:#90398D;}
	.st5{clip-path:url(#SVGID_2_);fill:url(#SVGID_3_);}
	.st6{opacity:0.25;clip-path:url(#SVGID_2_);fill:url(#);}
	.st7{clip-path:url(#SVGID_2_);fill:#FFFFFF;}
	.st8{clip-path:url(#SVGID_2_);}
	.st9{fill:#FFFFFF;}
	.st10{fill:#63C0BB;}
	.st11{opacity:0.4;fill:#63C0BB;}
	.st12{opacity:0.8;}
	.st13{fill:url(#SVGID_4_);}
	.st14{fill:url(#SVGID_5_);}
	.st15{fill:url(#SVGID_6_);}
	.st16{fill:url(#SVGID_7_);}
	.st17{fill:url(#SVGID_8_);}
	.st18{clip-path:url(#SVGID_10_);fill:#27348B;}
	.st19{opacity:0.2;clip-path:url(#SVGID_10_);fill:url(#);}
	.st20{clip-path:url(#SVGID_10_);fill:#FFFFFF;}
	.st21{clip-path:url(#SVGID_10_);}
	.st22{fill:url(#SVGID_11_);}
	.st23{fill:url(#SVGID_12_);}
	.st24{fill:url(#SVGID_13_);}
	.st25{fill:url(#SVGID_14_);}
	.st26{fill:url(#SVGID_15_);}
	.st27{clip-path:url(#SVGID_17_);fill:url(#SVGID_18_);}
	.st28{opacity:0.2;clip-path:url(#SVGID_17_);fill:url(#);}
	.st29{clip-path:url(#SVGID_17_);fill:#FFFFFF;}
	.st30{clip-path:url(#SVGID_17_);}
	.st31{fill:url(#SVGID_19_);}
	.st32{fill:url(#SVGID_20_);}
	.st33{fill:url(#SVGID_21_);}
	.st34{fill:url(#SVGID_22_);}
	.st35{fill:url(#SVGID_23_);}
</style>
<g>
	<path class="st9" d="M91.2,26.6h7.8v27.7c0,2.1,0.6,3.9,1.9,5.3c1.3,1.4,3,2.1,5,2.1c1.9,0,3.4-0.7,4.7-2.1
		c1.3-1.4,1.9-3.1,1.9-5.3c0-2.1-0.6-3.9-1.9-5.3c-1.3-1.4-2.9-2.1-4.9-2.1c-1.5,0-2.8,0.3-4.2,0.9v-8.2c2-0.6,3.6-0.8,4.7-0.8
		c4,0,7.4,1.6,10.1,4.7c2.6,3,3.9,6.5,3.9,10.7c0,4.4-1.4,8-4.1,11c-2.7,3-6.2,4.5-10.4,4.5c-4.2,0-7.7-1.5-10.5-4.5
		c-2.7-3-4.1-6.7-4.1-11V26.6z"/>
	<path class="st9" d="M153.1,69h-7.8V52.4c0-1.8-0.6-3.2-1.9-4.2c-1.3-1.1-2.9-1.6-5-1.6c-1.9,0-3.4,0.7-4.7,2.2
		c-1.3,1.5-1.9,3.3-1.9,5.5c0,2,0.6,3.7,1.9,5c1.3,1.4,2.9,2.1,4.8,2.1c1.3,0,2.8-0.3,4.4-0.9v8.1c-2,0.5-3.7,0.7-4.9,0.7
		c-4.4,0-7.8-1.5-10.4-4.4c-2.4-2.7-3.6-6.2-3.6-10.2c0-4.6,1.4-8.5,4.2-11.5c2.7-2.9,6.1-4.3,10.2-4.3c4.4,0,7.9,1.2,10.6,3.7
		c2.7,2.5,4,5.6,4,9.5V69z"/>
	<path class="st9" d="M158.4,47.1v-7.5h16.9c1.9,0,3.4,0.4,4.4,1.2c0.9,0.7,1.3,1.7,1.3,2.8c0,2.4-0.8,4.4-2.3,6.1l-10.7,11.8h13V69
		H162c-1.7,0-3-0.4-4-1.3c-1-0.9-1.5-2-1.5-3.3c0-1.5,0.6-2.9,1.8-4.2l12.1-13.1H158.4z"/>
	<path class="st9" d="M189.5,25.9c1.3,0,2.4,0.4,3.3,1.3c0.9,0.9,1.3,2.1,1.3,3.6c0,1.5-0.4,2.7-1.3,3.6c-0.9,0.9-2,1.3-3.3,1.3
		c-1.3,0-2.4-0.4-3.3-1.3c-0.9-0.9-1.3-2.1-1.3-3.6c0-1.5,0.4-2.7,1.3-3.6C187,26.3,188.1,25.9,189.5,25.9z M193.3,69h-7.8V39.6h7.8
		V69z"/>
	<path class="st9" d="M207,69h-7.8V26.6h7.8v22.9h2.2c1.4,0,2.6-1,3.5-3.1l3-6.9h8.7l-3.1,6.9c-0.9,2-1.6,3.3-2.3,4.1
		c-0.6,0.7-1.5,1.2-2.6,1.5v0.2c2.8,0.5,4.8,1.5,5.9,3c1,1.4,1.5,3.5,1.5,6.4V69h-7.8v-6.8c0-3.5-1.6-5.2-4.7-5.2H207V69z"/>
	<path class="st9" d="M227.9,69v-7.3h10c1.5,0,2.2-0.5,2.2-1.6c0-1-1-2-3.1-3.1c-3.2-1.7-5.1-2.8-5.7-3.3c-2.1-1.6-3.1-3.4-3.1-5.5
		c0-3,1-5.2,2.9-6.7c1.7-1.3,3.9-1.9,6.7-1.9h9.3v7.3h-9c-1.3,0-1.9,0.4-1.9,1.3c0,0.6,1.1,1.5,3.2,2.5c3,1.4,5,2.5,6.1,3.4
		c2.1,1.7,3.2,3.7,3.2,5.9c0,2.8-0.9,5-2.8,6.6c-1.9,1.6-4.2,2.4-7.2,2.4H227.9z"/>
	<path class="st9" d="M258.5,59.2c1.5,0,2.7,0.5,3.6,1.5c0.9,1,1.4,2.2,1.4,3.6c0,1.4-0.5,2.6-1.4,3.6c-1,1-2.2,1.5-3.6,1.5
		c-1.5,0-2.7-0.5-3.6-1.5c-1-1-1.4-2.2-1.4-3.6c0-1.4,0.5-2.6,1.4-3.6C255.9,59.7,257.1,59.2,258.5,59.2z"/>
</g>
<g>
	<g>
		<g>
			<path class="st9" d="M89.7,68.5c0,0.2-0.1,0.3-0.3,0.3h-1.1c-0.2,0-0.3-0.1-0.3-0.3l0,0c0-0.2,0.1-0.3,0.3-0.3h1.1
				C89.5,68.2,89.7,68.4,89.7,68.5L89.7,68.5z"/>
			<path class="st9" d="M85.4,67.2c-0.1,0-0.3,0-0.4,0h-2.7c-1,0-1.8,0.6-1.8,1.4c0,0.8,0.8,1.4,1.8,1.4H85c0.1,0,0.3,0,0.4,0V67.2z
				"/>
			<rect x="85.1" y="68" class="st9" width="1" height="1.2"/>
			<rect x="86.3" y="68" class="st9" width="1" height="1.2"/>
			<rect x="87.4" y="68" class="st9" width="1" height="1.2"/>
			<path class="st9" d="M81,68h-3.6v1.2H81c0.6,0,1.1-0.3,1.1-0.6C82.1,68.2,81.6,68,81,68z"/>
		</g>
		<path class="st9" d="M32.3,58.8c0,0-0.3,0.2-0.9,0.7c-0.6,0.5-1.4,1.1-2.5,1.9c-1.1,0.8-2.4,1.8-4,2.8c-1.6,1-3.5,2-5.7,2.8
			c-1.1,0.4-2.3,0.7-3.6,0.7c-0.7,0-1.3,0-2-0.2c-0.7-0.2-1.3-0.5-1.9-0.8c-0.6-0.4-1.2-0.8-1.7-1.4c-0.2-0.3-0.4-0.8-0.4-1.3
			c0-0.3,0.2-0.5,0.3-0.7c0.1-0.2,0.3-0.3,0.5-0.5c0.1-0.1,0.1-0.1,0.3-0.2c0.1,0,0.1-0.1,0.3-0.1c0.2-0.1,0.4-0.1,0.6-0.2
			c0.4-0.1,0.8-0.1,1.2,0c0.8,0.1,1.5,0.3,2.2,0.5c1.4,0.5,2.7,1.2,4,1.9c1.3,0.7,2.6,1.5,3.9,2.2c2.6,1.5,5.4,2.9,8.2,4
			c1.4,0.6,2.9,1,4.3,1.5c0.7,0.2,1.5,0.4,2.2,0.6c0.7,0.2,1.5,0.4,2.2,0.5c2.9,0.6,5.9,1,8.7,1.1c1.4,0,2.8,0,4.2-0.2
			c1.4-0.2,2.7-0.4,3.9-0.7c2.5-0.6,4.8-1.6,6.9-2.5c2.1-0.9,4.1-1.8,5.9-2.3c1.8-0.6,3.5-0.8,4.9-0.9c1.4-0.1,2.5,0,3.2,0.1
			c0.4,0.1,0.6,0.1,0.8,0.2c0.2,0.1,0.3,0.1,0.3,0.1l0,0.2c0,0-0.1,0-0.3,0.1c-0.2,0-0.5,0.1-0.8,0.1c-0.7,0.1-1.8,0.1-3.1,0.3
			c-1.3,0.2-2.9,0.5-4.6,1.1c-1.8,0.6-3.7,1.4-5.8,2.3c-2.1,0.9-4.5,1.8-7.1,2.5c-1.3,0.3-2.7,0.6-4.1,0.7c-1.4,0.1-2.9,0.2-4.3,0.2
			c-2.9-0.1-6-0.5-8.9-1.2c-0.7-0.2-1.5-0.3-2.2-0.5c-0.7-0.2-1.5-0.4-2.2-0.6c-1.5-0.4-3-0.9-4.4-1.5c-2.9-1.2-5.7-2.6-8.3-4.1
			c-1.3-0.8-2.6-1.5-3.9-2.2c-1.3-0.7-2.6-1.4-3.9-1.9c-0.7-0.2-1.3-0.4-2-0.5c-0.3,0-0.6,0-0.9,0c-0.1,0-0.3,0.1-0.4,0.1
			c0,0-0.1,0.1-0.2,0.1c0,0-0.1,0.1-0.2,0.1c-0.5,0.4-0.5,0.6-0.2,1.1c0.3,0.5,0.8,0.9,1.4,1.2c0.5,0.3,1.1,0.6,1.6,0.8
			c0.6,0.2,1.2,0.2,1.8,0.2c1.2,0,2.3-0.3,3.4-0.6c2.2-0.7,4-1.7,5.6-2.6c1.6-0.9,3-1.9,4.1-2.6c1.1-0.8,1.9-1.4,2.5-1.9
			c0.6-0.4,0.9-0.7,0.9-0.7L32.3,58.8z"/>
		<g>
			<g>
				<path class="st9" d="M70.4,35c-0.5,0.4-0.8,0.9-0.8,1.5v25.4c0,0.3,0.1,0.6,0.2,0.8c-0.7-0.4-1.2-1-1.2-1.6V36.9
					C68.7,36.1,69.4,35.4,70.4,35z"/>
			</g>
			<g>
				<path class="st9" d="M38.5,34.8c0.5,0.4,0.8,0.9,0.8,1.5v25.4c0,0.3-0.1,0.6-0.2,0.8c0.7-0.4,1.2-1,1.2-1.6V36.7
					C40.3,35.9,39.6,35.2,38.5,34.8z"/>
			</g>
			<path class="st9" d="M80.2,47.9h-3c-0.1,0-0.2,0.3-0.2,0.8c0,0.5,0.1,0.8,0.2,0.8h3c0.1,0,0.2-0.3,0.2-0.8
				C80.4,48.2,80.3,47.9,80.2,47.9z"/>
			<path class="st9" d="M32,47.9h-3c-0.1,0-0.2,0.3-0.2,0.8c0,0.5,0.1,0.8,0.2,0.8h3c0.1,0,0.2-0.3,0.2-0.8
				C32.2,48.2,32.1,47.9,32,47.9z"/>
			<path class="st10" d="M58.9,11.2c-0.5-0.1-1-0.2-1.6-0.3C57.9,11,58.4,11,58.9,11.2z"/>
			<path class="st10" d="M60.3,11.5C60.3,11.5,60.3,11.5,60.3,11.5C60.3,11.5,60.3,11.5,60.3,11.5L60.3,11.5z"/>
			<polygon class="st11" points="69.5,19.7 69.5,19.7 69.5,19.7 69.5,19.7 			"/>
			<path class="st10" d="M76.4,25.1c0.4,0.4,0.7,0.8,1,1.2c0,0,0,0,0,0C77.1,25.9,76.7,25.5,76.4,25.1z"/>
			<path class="st9" d="M28.6,51.7c0,0.2,0.1,0.4,0.2,0.6c0.1,0.2,0.3,0.2,0.5,0.2c0.3,0,0.5-0.2,0.7-0.4v0c0-0.2-0.1-0.5-0.1-0.7
				c-0.3-2.1-0.5-4.2-0.5-6.3c0-0.4,0-0.7,0-1.1c-0.5,0.8-1,1.5-1.6,2.2C27.9,48.1,28.2,50,28.6,51.7z"/>
			<path class="st9" d="M31.5,25.2c-0.6,1.2-1.1,2.5-1.6,3.8c0.5,1.1,0.9,2.3,1.2,3.5c1.5-4.8,3.9-9.1,7-12.5
				c-0.4,0.2-0.7,0.3-1.1,0.5C34.9,21.7,33,23.3,31.5,25.2z"/>
			<path class="st10" d="M80.1,52.2C80.1,52.2,80.1,52.2,80.1,52.2C80.1,52.2,80.1,52.2,80.1,52.2C80.1,52.2,80.1,52.2,80.1,52.2z"
				/>
			<path class="st9" d="M29.8,29.8c-0.3,0.9-0.6,1.8-0.8,2.7c-0.9,3.2-1.3,6.6-1.3,10.1c0,1.1,0,2.1,0.1,3.2
				c0.6-0.7,1.1-1.4,1.6-2.2c0.1-2.1,0.3-4.1,0.6-6c0.3-1.5,0.6-2.9,1.1-4.3C30.8,32,30.4,30.9,29.8,29.8
				C29.9,29.8,29.9,29.8,29.8,29.8z"/>
			<path class="st9" d="M79.5,45.1c0,2.2-0.2,4.3-0.5,6.4c0,0.2-0.1,0.5-0.1,0.7c0.1,0.3,0.4,0.5,0.7,0.5c0.2,0,0.4-0.1,0.5-0.2
				c0,0,0,0,0,0c0.1-0.2,0.1-0.5,0.2-0.7c0.4-1.9,0.7-3.8,0.9-5.8c-0.6-0.8-1.2-1.6-1.6-2.5C79.5,44,79.5,44.5,79.5,45.1z"/>
			<path class="st9" d="M79,29c-0.5-1.3-1-2.6-1.6-3.8c0,0,0,0,0,0c0,0,0,0,0,0c-0.3-0.4-0.7-0.8-1-1.2c-1.3-1.4-2.8-2.6-4.4-3.4
				C71.3,20,70.7,19.5,70,19c-0.2-0.1-0.3-0.2-0.5-0.3c0.4,0.4,0.9,0.9,1.3,1.3c3.2,3.6,5.7,8.1,7.2,13.1c0.2-1.3,0.6-2.6,1.1-3.8
				C79.1,29.3,79.1,29.1,79,29z"/>
			<path class="st9" d="M79.9,32.5c-0.2-0.8-0.5-1.6-0.7-2.4c-0.5,1.2-0.9,2.5-1.1,3.8c0.3,1.2,0.6,2.4,0.9,3.6
				c0.3,1.8,0.5,3.6,0.6,5.4c0.5,0.9,1,1.7,1.6,2.5c0.1-0.9,0.1-1.9,0.1-2.8C81.2,39.1,80.8,35.7,79.9,32.5z"/>
			<g>
				<path class="st10" d="M69.2,17.9C69.2,17.9,69.2,17.9,69.2,17.9c0.1,0.1,0.2,0.2,0.4,0.3c0,0,0,0,0,0
					C69.4,18.1,69.3,18,69.2,17.9z"/>
				<path class="st9" d="M31.5,24.8c1.6-1.9,3.4-3.5,5.5-4.6c0.7-0.6,1.4-1.1,2.1-1.6c0.6-2.1,1.5-4,2.8-5.6
					C37.6,15.7,34,19.8,31.5,24.8z"/>
				<path class="st9" d="M65.2,11.8c1.6,1.7,2.8,3.7,3.5,5.9c0.3,0.2,0.5,0.4,0.8,0.5c-0.1-0.1-0.2-0.2-0.4-0.4c0,0,0,0,0,0
					c0.1,0.1,0.2,0.2,0.4,0.3c0,0,0,0,0,0c0.5,0.6,0.8,0.7,1,0.7c0.5,0.4,1,0.8,1.4,1.2c1.6,0.9,3.1,2,4.4,3.4
					c0.4,0.4,0.7,0.8,1,1.2C74.6,19.1,70.3,14.5,65.2,11.8z"/>
				<path class="st10" d="M58.9,9.7c-0.5-0.1-1-0.2-1.6-0.3C57.9,9.5,58.4,9.6,58.9,9.7z"/>
				<path class="st10" d="M60.3,10L60.3,10C60.3,10,60.3,10,60.3,10C60.3,10,60.3,10,60.3,10z"/>
				<path class="st9" d="M54.6,9c0,0-0.1,0-0.1,0c0,0,0,0,0,0c-0.1,0-0.1,0-0.2,0c-4.4,0-8.5,1.4-12.1,3.7c-1.3,1.6-2.2,3.5-2.7,5.6
					c0.1-0.1,0.2-0.2,0.3-0.2c3.8-2.7,8.2-4.3,12.9-4.3c0.1,0,0.2,0,0.3,0c0.5,0,1,0,1.4,0.1c0.5,0,1-0.1,1.4-0.1c0.1,0,0.2,0,0.3,0
					c4.4,0,8.5,1.3,12.1,3.7c-0.7-2.2-1.9-4.2-3.4-5.9C61.7,10,58.2,9,54.6,9z M57.2,9.3c0.5,0.1,1,0.2,1.5,0.3
					C58.2,9.4,57.7,9.3,57.2,9.3z M60.1,9.9L60.1,9.9C60.1,9.9,60.1,9.9,60.1,9.9L60.1,9.9z"/>
			</g>
		</g>
	</g>
	<g>
		<path class="st9" d="M76.9,38.3c-0.3-1-1.3-1.9-2.3-2.1v25.6c1-0.2,2-1,2.3-2.1C78.8,52.8,78.8,45.4,76.9,38.3z"/>
		<path class="st9" d="M74.1,36.2c-0.5,0-1,0-1.5,0v25.7c0.5,0,1,0,1.5,0c0,0,0,0,0,0L74.1,36.2C74.1,36.2,74.1,36.2,74.1,36.2z"/>
		<g>
			<path class="st9" d="M72.2,35.8c-0.4-0.4-0.9-0.7-1.5-0.8c-1.2,0.3-2,1.1-2,2v24.2c0,0.9,0.8,1.6,2,2c0.6-0.2,1.1-0.5,1.5-0.8
				V35.8z"/>
			<path class="st9" d="M72.6,36.5v25.2c0.1-0.2,0.1-0.3,0.1-0.5V37C72.7,36.8,72.7,36.6,72.6,36.5z"/>
		</g>
	</g>
	<path class="st9" d="M34.5,36c-1.1,0.1-2.2,1-2.5,2.1c-1.9,7-1.9,14.4,0,21.5c0.3,1.1,1.4,2,2.5,2.1V36z"/>
	<g>
		<path class="st9" d="M38.2,34.8c-0.6,0.2-1,0.4-1.4,0.7v26.7c0.4,0.3,0.8,0.6,1.4,0.7c1.2-0.3,2-1.1,2-2V36.8
			C40.3,35.9,39.4,35.1,38.2,34.8z"/>
	</g>
	<path class="st9" d="M36.5,36c-0.5,0-1,0-1.5,0v25.7c0.5,0,1,0,1.5,0V36z"/>
</g>
</svg>
